<?xml version="1.0" encoding="utf-8"?>
<!-- Generator: Adobe Illustrator 24.0.0, SVG Export Plug-In . SVG Version: 6.00 Build 0)  -->
<svg version="1.1" id="Capa_1" xmlns="http://www.w3.org/2000/svg" xmlns:xlink="http://www.w3.org/1999/xlink" x="0px" y="0px"
	 viewBox="0 0 141.7 141.7" style="enable-background:new 0 0 141.7 141.7;" xml:space="preserve">
<style type="text/css">
	.st0{fill:#0A3871;}
</style>
<g>
	<path class="st0" d="M70.9,5.5c14.3,0,24.7,2.8,31.4,8.4s10,12.6,10,21v11.7v53.3v7.1c0,2.9-0.5,6.1-1.6,9.6
		c-1.1,3.5-3.1,6.7-6.2,9.6c-3.1,2.9-7.3,5.3-12.6,7.3s-12.3,2.9-20.9,2.9s-15.6-1-20.9-2.9c-5.3-1.9-9.6-4.4-12.6-7.3
		c-3.1-2.9-5.2-6.1-6.2-9.6c-1.1-3.5-1.6-6.7-1.6-9.6V95.4c0-6.2,1.6-11.8,4.7-16.8c3.2-5,7.7-8.6,13.5-10.7c2.9-1,6.2-2.1,10-3.4
		c3.7-1.3,7.3-2.5,10.8-3.8c3.5-1.2,6.5-2.3,9.1-3.3c2.6-1,4.2-1.5,4.9-1.7c0.7-0.3,1.5-0.8,2.6-1.3s2.1-1.4,3-2.5s1.8-2.4,2.6-3.9
		s1.1-3.2,1.1-5.1v-4.6c0-1.6-0.3-3.3-1-5c-0.7-1.7-1.8-3.3-3.4-4.7c-1.6-1.5-3.8-2.6-6.4-3.5c-2.7-0.9-6-1.3-10.1-1.3
		c-8.1,0-13.6,1.7-16.4,5c-2.9,3.3-4.3,7.3-4.3,12H29.5v-5.8c0-4.1,0.8-7.9,2.3-11.4c1.5-3.6,4-6.7,7.4-9.4S47,9.3,52.2,7.8
		C57.3,6.2,63.6,5.5,70.9,5.5z M91.8,69.9c-0.3,1.6-1.1,2.8-2.4,3.7c-1.3,0.8-2.5,1.4-3.7,1.7C83.3,76,80.6,77,77.8,78
		c-2.8,1.1-5.5,2-7.9,2.8c-2.9,1-5.7,1.9-8.3,2.9c-1.9,0.8-3.8,1.9-5.6,3.4c-1.5,1.3-2.8,3-4,5c-1.2,2-1.8,4.6-1.8,7.7
		c0,6.2,1.5,10.7,4.4,13.7s8.4,4.5,16.3,4.5c8.1,0,13.6-1.6,16.5-4.7c2.9-3.2,4.4-7.7,4.4-13.5L91.8,69.9L91.8,69.9z"/>
</g>
</svg>
